<svg xmlns="http://www.w3.org/2000/svg" width="350" height="242" viewBox="0 0 350 242">
    <defs>
        <linearGradient id="linear-gradient" x1=".103" x2=".828" y1=".102" y2=".824" gradientUnits="objectBoundingBox">
            <stop offset="0" stop-color="#f26792"/>
            <stop offset="1" stop-color="#ffaec1"/>
        </linearGradient>
        <style>
            .cls-3{fill:#e54e7d}
        </style>
    </defs>
    <g id="logo" transform="translate(.004 -.005)">
        <g id="레이어_1" transform="translate(-.004 .005)">
            <path id="패스_65" fill="#f26792" d="M154.275 118.757c25.4-27.551 30.468-68.34-.269-98.718a62.237 62.237 0 0 0-92.256.853L38.91 45.616l92.57 97.955z" transform="translate(133.979 -.005)"/>
            <path id="패스_66" fill="url(#linear-gradient)" d="M142.909 43.528l-22.077-23.09a62.436 62.436 0 0 0-92.211.893C1.7 48.128 3.4 92.788 28.935 119.584L51.1 142.9l92.436 97.225 91.9-99.1z" transform="translate(31.751 1.879)"/>
            <path id="패스_67" d="M349.994 40.169c0 18.8-40.99 34.551-86.446 45.769a792.526 792.526 0 0 1-83.32 15.481c-21.21 2.827-49.117 5.429-76.667 6.282-6.251 0-12.5.314-18.62.314C41 108.016 2.47 102.451.1 84.368c-1.831-14.09 19.87-26.609 49.831-36.795a73.812 73.812 0 0 0 8.13 11.487C27.609 69.067 12.874 78.445 13.41 82.708c.714 5.429 27.416 12.474 77.872 12.026a718.92 718.92 0 0 0 87.339-6.551 741.421 741.421 0 0 0 78.364-14.269q12.77-3.1 23.487-6.282c38.177-11.308 56.886-22.436 56.261-27.372 0-.853-2.367-3.051-9.243-5.385a121.018 121.018 0 0 0-21.79-4.487 64.7 64.7 0 0 0 3.126-13.147C334.9 20.65 348.3 27.65 349.9 38.6a10.638 10.638 0 0 1 .089 1.571z" class="cls-3" transform="translate(.004 59.518)"/>
            <circle id="타원_42" cx="26.923" cy="26.923" r="26.923" class="cls-3" transform="translate(81.167 129.769)"/>
            <circle id="타원_43" cx="17.949" cy="17.949" r="17.949" class="cls-3" transform="translate(152.597 134.3)"/>
        </g>
    </g>
</svg>
